<svg width="254" height="70" viewBox="0 0 254 70" fill="none" xmlns="http://www.w3.org/2000/svg">
<g clip-path="url(#clip0_5820_7)">
<path d="M111 2C111 0.895431 111.895 0 113 0H141C142.105 0 143 0.895431 143 2V30C143 31.1046 142.105 32 141 32H113C111.895 32 111 31.1046 111 30V2Z" fill="#0278FE"/>
<path d="M143 6H111V8H143V6Z" fill="#2A2C2F"/>
<path d="M124 6H122V32H124V6Z" fill="#2A2C2F"/>
<path d="M118.313 69.0001L119.151 66.216H123.952L124.79 69.0001H129.052L124.251 54.4546H118.853L114.052 69.0001H118.313ZM120.046 63.2614L121.495 58.4603H121.609L123.058 63.2614H120.046Z" fill="white"/>
<path d="M130.453 69.0001H134.402V64.1989H135.765L138.322 69.0001H142.612L139.657 63.5739C141.206 62.8282 142.129 61.4149 142.129 59.3978C142.129 56.3012 139.963 54.4546 136.731 54.4546H130.453V69.0001ZM134.402 61.1308V57.608H135.794C137.179 57.608 138.01 58.1478 138.01 59.3978C138.01 60.6407 137.179 61.1308 135.794 61.1308H134.402Z" fill="white"/>
<path d="M143.414 57.6364H147.789V69.0001H151.681V57.6364H156.056V54.4546H143.414V57.6364Z" fill="white"/>
<path d="M170.973 59.2559H174.964C174.659 56.3368 172.01 54.2559 168.572 54.2559C164.652 54.2559 161.47 56.9547 161.47 61.7559C161.47 66.3581 164.354 69.199 168.601 69.199C172.408 69.199 175.135 66.8695 175.135 62.8922V60.8752H168.686V63.6877H171.328C171.293 64.9519 170.398 65.7615 168.629 65.7615C166.584 65.7615 165.533 64.2559 165.533 61.699C165.533 59.1777 166.669 57.6934 168.658 57.6934C169.893 57.6934 170.732 58.2615 170.973 59.2559Z" fill="white"/>
<path d="M180.305 69.0001L181.143 66.216H185.945L186.783 69.0001H191.044L186.243 54.4546H180.845L176.044 69.0001H180.305ZM182.038 63.2614L183.487 58.4603H183.601L185.05 63.2614H182.038Z" fill="white"/>
<path d="M192.445 69.0001H202.275V65.8183H196.394V54.4546H192.445V69.0001Z" fill="white"/>
<path d="M203.871 69.0001H213.7V65.8183H207.82V54.4546H203.871V69.0001Z" fill="white"/>
<path d="M215.297 69.0001H225.751V65.8183H219.245V63.3183H225.24V60.1364H219.245V57.6364H225.779V54.4546H215.297V69.0001Z" fill="white"/>
<path d="M227.738 69.0001H231.687V64.1989H233.05L235.607 69.0001H239.897L236.942 63.5739C238.491 62.8282 239.414 61.4149 239.414 59.3978C239.414 56.3012 237.248 54.4546 234.016 54.4546H227.738V69.0001ZM231.687 61.1308V57.608H233.079C234.464 57.608 235.295 58.1478 235.295 59.3978C235.295 60.6407 234.464 61.1308 233.079 61.1308H231.687Z" fill="white"/>
<path d="M239.817 54.4546L245.158 64.4262V69.0001H249.078V64.4262L254.419 54.4546H250.016L247.175 60.3637H247.061L244.221 54.4546H239.817Z" fill="white"/>
<path d="M108.637 54.4546V69H105.342L100.086 61.358H100.001V69H96.0522V54.4546H99.4045L104.575 62.0682H104.689V54.4546H108.637Z" fill="white"/>
<path d="M83.6118 69V54.4546H94.0947V57.6364H87.5607V60.1364H93.555V63.3182H87.5607V65.8182H94.0663V69H83.6118Z" fill="white"/>
<path d="M69.4839 57.6364V54.4546H82.1259V57.6364H77.7509V69H73.8589V57.6364H69.4839Z" fill="white"/>
<path d="M57.4399 69V54.4546H67.9229V57.6364H61.3888V60.1364H67.3831V63.3182H61.3888V65.8182H67.8945V69H57.4399Z" fill="white"/>
<path d="M46.0137 69V54.4546H49.9625V65.8182H55.8432V69H46.0137Z" fill="white"/>
<path d="M32.8887 69V54.4546H39.1671C40.2466 54.4546 41.1912 54.6677 42.0009 55.0938C42.8105 55.5199 43.4402 56.1189 43.8901 56.8907C44.3399 57.6624 44.5648 58.5644 44.5648 59.5966C44.5648 60.6383 44.3328 61.5403 43.8687 62.3026C43.4095 63.0649 42.7632 63.652 41.9298 64.0639C41.1012 64.4759 40.133 64.6818 39.025 64.6818H35.275V61.6137H38.2296C38.6936 61.6137 39.0889 61.5332 39.4156 61.3722C39.7471 61.2065 40.0004 60.9721 40.1756 60.6691C40.3555 60.366 40.4455 60.0086 40.4455 59.5966C40.4455 59.18 40.3555 58.8248 40.1756 58.5313C40.0004 58.233 39.7471 58.0057 39.4156 57.8495C39.0889 57.6885 38.6936 57.608 38.2296 57.608H36.8375V69H32.8887Z" fill="white"/>
<path d="M31.0177 54.4546V69H27.0688V54.4546H31.0177Z" fill="white"/>
<path d="M13.7095 69V54.4546H19.9879C21.0674 54.4546 22.012 54.6511 22.8217 55.0441C23.6313 55.4371 24.261 56.0029 24.7109 56.7415C25.1607 57.4801 25.3856 58.3656 25.3856 59.3978C25.3856 60.4394 25.1536 61.3177 24.6896 62.0327C24.2303 62.7477 23.584 63.2874 22.7506 63.652C21.922 64.0166 20.9538 64.1989 19.8458 64.1989H16.0958V61.1307H19.0504C19.5144 61.1307 19.9097 61.0739 20.2364 60.9603C20.5679 60.8419 20.8212 60.6549 20.9964 60.3992C21.1763 60.1435 21.2663 59.8097 21.2663 59.3978C21.2663 58.9811 21.1763 58.6426 20.9964 58.3821C20.8212 58.117 20.5679 57.9229 20.2364 57.7997C19.9097 57.6719 19.5144 57.608 19.0504 57.608H17.6583V69H13.7095ZM22.2322 62.3239L25.8685 69H21.5788L18.0276 62.3239H22.2322Z" fill="white"/>
<path d="M-0.418457 57.6364V54.4546H12.2235V57.6364H7.84856V69H3.95653V57.6364H-0.418457Z" fill="white"/>
</g>
<defs>
<clipPath id="clip0_5820_7">
<rect width="254" height="70" fill="white"/>
</clipPath>
</defs>
</svg>
